<?xml version="1.0" encoding="UTF-8"?>
<svg width="1440px" height="1024px" viewBox="0 0 1440 1024" version="1.1" xmlns="http://www.w3.org/2000/svg" xmlns:xlink="http://www.w3.org/1999/xlink">
    <!-- Generator: Sketch 63.1 (92452) - https://sketch.com -->
    <title>Desktop HD Copy 5</title>
    <desc>Created with Sketch.</desc>
    <g id="Desktop-HD-Copy-5" stroke="none" stroke-width="1" fill="none" fill-rule="evenodd">
        <g id="stationery-/-mildliner" transform="translate(62.000000, 490.000000) rotate(-351.000000) translate(-62.000000, -490.000000) translate(37.000000, 250.000000)">
            <g transform="translate(3.000000, 42.000000)">
                <path d="M20,394.947368 L38,394.947368 C39.1045695,394.947368 40,394.051938 40,392.947368 L40,376 L40,376 L18,376 L18,392.947368 C18,394.051938 18.8954305,394.947368 20,394.947368 Z M43.18,312.2601 L43.005632,374.005748 C43.002519,375.108108 42.1080045,376.0001 41.00564,376.0001 L16.9927962,376.0001 C15.891044,376.0001 14.9967848,375.109062 14.9928092,374.007317 L14.77,312.2601 L14.77,312.2601 L43.18,312.2601 Z M43.7396,104.0003 L43.1796,312.2603 L14.7696,312.2603 L14.0006,104.0003 L43.7396,104.0003 Z M43.7345133,104 L14,104 L14,25.9584918 C16.6336283,23.982623 19.3474336,23 21.7952212,23 L44,23 L43.7345133,104 Z" id="body" stroke="#21262C" stroke-width="2" fill="#FFFFFF" stroke-linejoin="round"></path>
                <g id="color" fill="#D8127D" stroke="#410526" stroke-width="2">
                    <path d="M5.90243902,44.6439422 L5.90243902,118.3 C4.35257182,118.1606 2.97109874,117.489319 1.9350183,116.478171 C0.736364639,115.308362 0,113.683658 0,111.901384 L0,39.6785742 C0,33.4154215 1.7122439,27.0322117 5.37282927,21.6434567 C9.03341463,16.2547017 14.534654,12.3884222 18.2621463,12.3294739 C20.6321662,12.2919933 28.5455841,12.2813225 42.0024001,12.2974616 C43.1060314,12.2987867 44,13.1938281 44,14.2974602 L44,22.9539908 L44,22.9539908 C31.6124946,22.9539908 24.1335678,22.9539908 21.5632195,22.9539908 C17.7076971,22.9539908 13.209122,25.3429135 9.35858537,30.1457264 C5.50804878,34.9485393 5.90243902,39.0867886 5.90243902,44.6439422 Z" id="clip"></path>
                    <path d="M17,0 L41,0 C41,3.60939555 41,6.38585367 41,8.32937435 C41,9.76750916 35.4790636,12 29,12 C22.5209364,12 17,9.80652056 17,8.32937435 C17,6.38585367 17,3.60939555 17,0 Z" id="clip-top" transform="translate(29.000000, 6.000000) scale(1, -1) translate(-29.000000, -6.000000) "></path>
                </g>
            </g>
        </g>
        <g id="stationery-/-pentel-brush" transform="translate(1354.000000, 821.000000) rotate(-345.000000) translate(-1354.000000, -821.000000) translate(1329.000000, 581.000000)">
            <g transform="translate(3.000000, 57.000000)">
                <path d="M19,361 L39,361 C39,361.695441 39,362.528774 39,363.5 C39,364.471226 38.7222222,365.304559 38.1666667,366 L19.8333333,366 C19.2777778,365.304559 19,364.471226 19,363.5 C19,362.528774 19,361.695441 19,361 Z" id="bottom" stroke="#21262C" stroke-width="2" fill="#D2D9E0" fill-rule="nonzero" stroke-linejoin="round"></path>
                <path d="M17.7333333,152.464116 L40.2666667,152.464116 C41.4222222,198.578447 42,233.405608 42,256.945598 C42,280.485588 41.4222222,315.312748 40.2666667,361.427079 L17.7333333,361.427079 C16.5777778,315.21174 16,280.38458 16,256.945598 C16,233.506616 16.5777778,198.679455 17.7333333,152.464116 Z" id="body" stroke="#270D25" stroke-width="2" fill="#812C7C"></path>
                <path d="M43.7346808,152.465116 L14.4568459,152.465116 C13.6334068,131.581091 13.9353345,107.048992 15.3717783,78.8743628 C16.3416065,59.8208434 17.7048557,41.6183566 19.4523765,24.2826109 L19.3883312,24.2742946 C17.228176,25.6603411 15.7194525,27.0916651 14.8777148,28.5802791 C13.6141932,30.8071938 13.184175,31.7118202 12.6269812,34.2898667 C12.0771069,36.8679132 7.91507968,104.193736 7.91507968,106.715417 C7.91507968,108.388837 9.48784837,110.300657 12.6269812,112.426853 L7.91507968,119.411603 C2.63500514,115.373588 0,111.141526 0,106.715417 C0,100.072558 3.56000174,37.8852713 4.75764817,31.7118202 C5.56278863,27.5998822 11.3909076,17.0298915 22.2337708,0 L35.9577559,0 C39.3786879,29.9376806 41.6660188,56.2272868 42.8197485,78.8743628 C43.9817125,101.522363 44.2836402,126.046146 43.7346808,152.465116 Z" id="cap" stroke="#270D25" stroke-width="2" fill="#812C7C"></path>
            </g>
        </g>
        <g id="stationery-/-zebra-sarasa" transform="translate(1316.000000, 225.000000) rotate(-15.000000) translate(-1316.000000, -225.000000) translate(1291.000000, -15.000000)" stroke="#21262C" stroke-linejoin="round">
            <g transform="translate(2.000000, 45.000000)">
                <g id="bottom" transform="translate(17.435549, 361.329572)" stroke-width="2">
                    <path d="M7.56445053,18.6704277 L18.3361578,14 M6.56445053,11.6704277 L18.3361578,7 M6.56445053,4.67042767 L18.3361578,-1.19904087e-14" id="spring-back" stroke-linecap="round"></path>
                    <path d="M25.2,2.14042767 C23.23,10.1904277 20.03,19.3704277 15.599,29.6704277 L9.599,29.6704277 C5.17,19.3704277 1.97,10.1904277 2.30926389e-14,2.14042767 L25.2,2.14042767 Z" id="point-body" stroke-linecap="round"></path>
                    <polygon id="metal-point" fill="#D2D9E0" fill-rule="nonzero" points="9.56445053 2.14072767 15.5644505 2.14072767 15.5644505 20.2191368 12.5644505 26.022162 9.56445053 20.2191368"></polygon>
                    <path d="M6.56445053,11.6704277 L18.3361578,14 M6.56445053,4.67042767 L18.3361578,7 M7.56445053,18.6704277 L17.5644505,18.6704277" id="spring-front" stroke-linecap="round"></path>
                </g>
                <g id="inside" transform="translate(22.035449, 0.000000)" stroke-width="2">
                    <g id="fill" transform="translate(1.000000, 61.000000)">
                        <rect id="body" fill="#F0F2F5" x="0" y="0" width="14" height="189"></rect>
                        <rect id="color" fill="#7E8C9A" fill-rule="nonzero" x="0" y="88" width="14" height="101"></rect>
                    </g>
                    <path d="M0,61 L16,61 L16,56 L0,56 L0,61 Z M1,37 L15,37 L15,56 L1,56 L1,37 Z" id="push-bottom" fill="#FFFFFF"></path>
                    <path d="M1,0 L15,0 L15,35 C15,36.1045695 14.1045695,37 13,37 L3,37 C1.8954305,37 1,36.1045695 1,35 L1,0 L1,0 Z" id="push" fill="#B5BFC9" fill-rule="nonzero" transform="translate(8.000000, 18.500000) scale(1, -1) translate(-8.000000, -18.500000) "></path>
                </g>
                <g id="body" transform="translate(0.000000, 26.000000)" stroke-width="2">
                    <polygon stroke-linecap="round" points="16.0354495 0 44.0354495 0 45.0354495 29.7327136 45.0354495 224 15.0354495 224 15.0354495 29.7327136"></polygon>
                    <path d="M1.03544947,2 L9.03544947,2 L15.0354495,29.0221389 L15.0354495,46.6265613 C13.1041734,46.7154143 11.3893217,47.6190339 9.89089454,49.3374202 C8.39246735,51.0558066 7.73391607,53.0588986 7.91524068,55.3466964 L9.03544947,129.536107 L5.72410625,129.536107 C2.52725193,97.8643479 0.631033004,73.8012112 0.0354494693,57.3466964 C-0.309889885,47.8058156 1.98031009,37.9666338 2.03544947,27.0847012 C2.06208667,21.8277652 1.72875333,13.4661981 1.03544947,2 Z" id="clip" fill="#B5BFC9" fill-rule="nonzero"></path>
                    <path d="M45.0349495,224.0003 L45.0349495,320.1403 C45.0349495,325.1803 44.2349495,330.9603 42.6359495,337.4703 L17.4349495,337.4703 C15.8359495,330.9603 15.0349495,325.1803 15.0349495,320.1403 L15.0349495,224.0003 L45.0349495,224.0003 Z" id="grip-body" fill="#B5BFC9" fill-rule="nonzero"></path>
                </g>
            </g>
        </g>
    </g>
</svg>